# xmcd
#
# Track frame offsets:
#	150
#	13932
#	28429
#	44105
#	57487
#	71799
#	88960
#	103588
#	123610
#	140661
#	154644
#	172195
#	186758
#	201180
#	219689
#	237967
#	255794
#	269181
#	286425
#	302597
#	319637
#
# Disc length: 4437 seconds
#
# Revision: 1
# Processed by: cddbd v1.5.2PL0 Copyright (c) Steve Scherf et al.
# Submitted via: audiograbber 1.83.01
#
DISCID=53115315
DTITLE=Tracy Lawrence - The Singles CD2
DYEAR=2013
DGENRE=Country
TTITLE0=While You Sleep
TTITLE1=Her Old Stompin' Ground
TTITLE2=I'll Never Pass This Way Again
TTITLE3=Lessons Learned
TTITLE4=Lonely
TTITLE5=Unforgivin
TTITLE6=Life Don't Have To Be So Hard
TTITLE7=What A Memory
TTITLE8=Paint Me A Birmingham
TTITLE9=It's All How You Look at It
TTITLE10=Find Out Who Your Friends Are
TTITLE11=Sawdust On Her Halo
TTITLE12=Used To The Pain
TTITLE13=If I Don't Make It Back
TTITLE14=Til I Was A Daddy Too
TTITLE15=You Can't Hide Redneck
TTITLE16=Up To Him
TTITLE17=Somebody Who Would Die For You
TTITLE18=The Singer
TTITLE19=Pills
TTITLE20=Stop, Drop, and Roll
EXTD=
EXTT0=
EXTT1=
EXTT2=
EXTT3=
EXTT4=
EXTT5=
EXTT6=
EXTT7=
EXTT8=
EXTT9=
EXTT10=
EXTT11=
EXTT12=
EXTT13=
EXTT14=
EXTT15=
EXTT16=
EXTT17=
EXTT18=
EXTT19=
EXTT20=
PLAYORDER=
